<svg xmlns="http://www.w3.org/2000/svg" height="1024" preserveAspectRatio="none" style="display: block;" version="1.1" viewBox="0 0 2048 2048" width="1024">
<path d="M 0 0 L 2048 0 L 2048 2048 L 0 2048 L 0 0 z" fill="rgb(25,28,56)" transform="translate(0,0)"></path>
<path d="M 990.41 94.3682 C 1020.2 91.4271 1030.43 97.8594 1057.47 103.226 C 1070.67 105.845 1102.03 94.8873 1118.69 97.0688 C 1132.6 97.5965 1151.01 101.636 1163.51 107.852 C 1183.72 117.903 1191.3 115.171 1212.11 114.298 C 1239.97 113.13 1265.92 125.163 1290.63 136.996 C 1305.47 113.015 1331.24 122.129 1333.65 149.087 C 1356.92 155.516 1379.64 160.601 1400.25 173.63 C 1412.76 181.54 1418.32 189.915 1429.88 197.93 C 1436.03 201.237 1443.78 203.309 1450.14 205.876 C 1471.74 214.602 1483.68 217.244 1493.76 239.226 C 1523.28 247.896 1549.16 260.269 1569.04 284.093 C 1573.76 288.141 1578.53 300.145 1583.01 303.457 C 1601.74 317.302 1620.96 325.027 1635.04 344.783 C 1634.47 343.981 1638.98 344.166 1640.08 344.553 C 1642.84 348.705 1642.4 351.228 1643.52 355.814 C 1644.23 358.723 1645.25 363.559 1647.5 365.664 C 1652.22 370.083 1659.84 374.991 1665.35 378.723 C 1685.47 392.357 1699.52 405.538 1711.75 426.771 C 1715.7 433.632 1723.69 453.273 1727.47 459.002 C 1727.92 459.686 1738.94 455.562 1744.9 459.968 C 1753.19 466.091 1747.58 480.144 1748.01 480.63 C 1753.93 487.395 1772.64 502.15 1779.38 509.936 C 1789.9 522.092 1798.08 532.884 1804.16 547.195 C 1813.07 568.188 1814.36 589.606 1816.26 611.737 C 1845.26 625.077 1857.38 649.952 1854.13 680.956 C 1861.92 687.363 1867.53 696.412 1873.11 704.498 C 1900.5 744.162 1886.15 778.275 1892.61 818.653 L 1897.98 823.25 C 1899.41 835.251 1909.47 867.198 1914.86 878.629 C 1937.96 927.683 1945.67 965.059 1938.73 1019.5 C 1937.88 1026.2 1937.3 1042.54 1932.1 1046.78 C 1927.32 1041.99 1932.08 1006.01 1933.03 997.816 C 1940.59 933.112 1908.6 895.897 1893.68 836.132 C 1887.61 858.408 1885.51 874.357 1881.03 895.973 C 1874.48 927.554 1844.68 969.45 1819.49 989.578 C 1836.77 1014.99 1859.92 1041.48 1889.09 1053.42 C 1894.39 1055.59 1899.94 1058.19 1904.98 1060.87 L 1905.55 1062.88 C 1904 1066.15 1905.13 1064.96 1902.28 1066.79 C 1867.62 1059.09 1836.95 1025.83 1816.61 998.597 C 1820.85 1081.65 1821.66 1163.99 1823.78 1247.05 C 1824.09 1259.54 1824.78 1281.94 1826.79 1295.14 C 1827.4 1295.72 1828.02 1296.29 1828.63 1296.87 C 1832.85 1295.52 1847.23 1261.57 1850.76 1254.14 C 1867.43 1218.7 1883.79 1183.12 1899.87 1147.41 C 1903.62 1138.99 1916.14 1108.2 1920.58 1101.99 C 1922.83 1101.38 1928.72 1099.64 1930.04 1102.08 C 1933.63 1108.7 1934.66 1119.82 1935.49 1127.33 C 1938.28 1152.78 1938.18 1179.61 1928.95 1203.83 C 1917.22 1229.84 1906.92 1237.49 1909.34 1269.06 C 1911.13 1292.47 1898.69 1311.77 1891.11 1332.97 C 1888.5 1341.96 1887.74 1350.03 1883.3 1358.44 C 1865.42 1392.28 1835.39 1415.3 1798.57 1425.3 C 1780.19 1430.3 1764.24 1430.79 1745.12 1430.88 C 1745.3 1450.93 1744.98 1464.78 1737.71 1484.25 C 1718.46 1535.73 1650.87 1572.12 1602.9 1593.72 C 1535.55 1624.05 1467.11 1627.42 1397.63 1600.34 C 1402.36 1713.82 1441.19 1820.36 1487.8 1922.43 C 1491.06 1929.55 1504.58 1954.73 1502.94 1960.76 C 1494.9 1964.03 1426.98 1962.08 1412.19 1961.97 C 1406.02 1951.18 1397.75 1928.35 1392.62 1915.97 C 1384.81 1897.15 1377.81 1881.45 1368.23 1863.23 C 1335.83 1801.61 1300.01 1742.24 1254.67 1689.15 C 1234.82 1665.92 1213.78 1644.34 1192.9 1621.93 C 1175.93 1603.72 1153.27 1578.5 1133.1 1563.97 C 1122.4 1556.25 1097.55 1550.31 1083.95 1544 C 1043.62 1525.3 1037.3 1482.83 1023.24 1444.85 C 968.514 1428.17 962.23 1419.46 937.755 1366.51 C 934.465 1367.06 920.192 1369.25 918.003 1370.39 C 912.338 1373.33 911.735 1380.26 903.161 1382.33 C 891.974 1385.02 884.427 1384.68 874.523 1378.3 C 872.727 1376.67 869.761 1376.33 867.416 1376.67 C 819.214 1383.69 770.319 1388.07 721.555 1386.4 C 709.044 1385.97 693.934 1385.35 681.614 1382.73 C 680.184 1390.68 676.317 1405.57 665.335 1396.18 C 662.018 1388.71 665.299 1385.8 670.567 1381.09 C 654.368 1376.75 632.404 1370.37 617.046 1364.15 C 599.639 1357.1 548.815 1332.7 542.467 1317.5 C 542.819 1313.48 542.162 1313.98 544.216 1311.25 C 548.299 1312.76 561.643 1326 567.583 1329.79 C 579.717 1337.61 591.989 1343.6 604.977 1350.05 C 684.266 1389.42 778.365 1379.87 863.212 1368.78 C 871.438 1367.7 880.005 1360.61 888.427 1359.3 C 902.026 1357.17 915.492 1362.02 929.126 1359.53 C 984.422 1350.61 1039.57 1339.81 1093.94 1326.35 C 1130.64 1317.27 1166.76 1307.68 1202.45 1295.16 C 1220.89 1288.69 1240.2 1283.49 1259.05 1278.37 C 1279.28 1272.88 1300.24 1265.72 1320.84 1262.1 C 1359.4 1255.34 1399.71 1257.8 1438.51 1261.01 C 1517.78 1268.12 1615.9 1284.03 1683.56 1328.81 C 1719.25 1352.43 1737.88 1382.34 1745.19 1423.67 C 1771.46 1424.74 1790.05 1421.47 1814.27 1411.64 C 1841.62 1400.04 1866.79 1377 1878.77 1349.53 C 1881.88 1342.39 1883.08 1333.73 1885.89 1326.4 C 1890.45 1314.53 1895.47 1303.1 1899.1 1290.9 C 1879.34 1298.58 1863.35 1306.77 1842.35 1314.11 C 1843.08 1319.24 1842.53 1323.72 1839.53 1328.09 C 1836.53 1332.42 1831.87 1335.31 1826.65 1336.08 C 1820.51 1336.99 1814.25 1335.41 1809.27 1331.7 C 1803.41 1327.36 1801.73 1323.07 1800.6 1316.22 C 1740.88 1299.81 1681.47 1278.29 1621.49 1262.49 C 1615.71 1260.97 1604.59 1260.14 1598.45 1259.9 C 1505.12 1256.26 1412.47 1233.67 1318.86 1245.56 C 1298.04 1248.21 1277.78 1256.18 1257.68 1261.77 C 1224.5 1271 1191.61 1282.1 1158.44 1291.15 C 1048.8 1322.03 936.741 1343.52 823.461 1355.38 C 777.665 1359.89 717.833 1363.52 671.913 1355.58 C 656.024 1352.83 627.739 1341.06 612.344 1334.21 C 597.203 1327.47 579.323 1317.67 565.923 1307.62 C 551.364 1296.7 553.767 1284.42 544.842 1273.73 C 539.377 1267.18 525.925 1262.23 516.51 1254.16 C 494.352 1235.99 469.234 1206.3 467.41 1176 C 465.411 1142.81 491.815 1102.83 506.559 1073.52 C 524.513 1037.83 537.586 998.51 564.607 968.721 C 601.683 927.848 647.007 906.628 701.778 903.184 C 702.539 899.095 702.833 894.494 703.212 890.317 C 640.731 886.139 585.001 917.267 545.816 965.198 C 522.957 993.16 508.5 1030.24 492.161 1062.36 C 477.879 1090.44 462.571 1120.29 453.441 1150.52 C 442.745 1190.66 462.442 1223.85 489.316 1252.03 C 494.726 1257.7 505.878 1266.31 509.475 1272.29 C 508.29 1276.23 509.458 1275.02 506.693 1276.77 C 492.933 1274.87 457.018 1224.02 450.966 1210.85 C 436.573 1179.53 443.71 1152.22 454.91 1121.82 C 432.763 1119.64 411.408 1115.42 389.499 1112.12 C 341.911 1104.95 293.653 1086.52 272.905 1039.26 C 268.614 1040.36 262.985 1041.54 258.628 1042.13 C 225.165 1046.9 191.203 1037.85 164.545 1017.07 C 154.751 1009.52 117.94 970.289 126.689 959.824 C 129.905 959.341 130.591 960.36 132.3 963.789 C 162.417 1024.23 212.163 1045.24 278.022 1030.33 C 282.14 1038.51 286.48 1049.78 292.229 1056.77 C 321.829 1092.8 362.626 1100.14 406.058 1106.95 C 423.773 1109.72 440.436 1113.04 457.944 1115.44 L 466.277 1097.29 C 400.928 1089.89 302.503 1087.67 290.343 1006.39 C 289.108 1007.15 287.851 1007.86 286.572 1008.53 C 230.417 1038.59 170.098 1008.05 142.952 956.262 C 141.352 953.209 142.129 951.972 143.254 949.292 C 146.137 948.806 146.65 950.111 149.966 952.317 C 153.069 949.57 161.204 936.551 165.06 931.65 C 185.062 906.227 204.423 876.279 225.763 852.239 C 218.803 845.387 218.821 840.215 222.04 831.472 C 207.696 809.582 191.998 788.038 177.016 766.527 C 162.262 745.343 147.782 723.389 132.478 702.674 C 129.636 724.462 134.462 743.759 129.985 767.967 C 124.73 795.118 112.929 815.657 109.244 843.403 C 107.012 860.21 119.919 898.339 116.613 906.164 L 114.973 905.899 C 110.552 900.216 108.981 894.483 107.052 888.097 C 92.2953 839.234 109.544 817.427 121.593 772.508 C 127.199 751.61 121.519 727.211 125.33 706.8 C 128.73 692.738 142.813 680.76 147.094 667.279 C 157.399 634.815 154.54 599.785 181.203 574.221 C 198.782 557.105 200.198 532.543 215.872 513.863 C 223.123 505.222 233.047 499.887 240.03 491.925 C 243.647 487.802 246.819 473.191 249.085 466.948 C 256.809 445.674 272.231 431.557 287.397 415.587 C 290.6 412.229 281.441 389.894 297.9 387.703 C 310.775 384.761 320.113 397.35 329.274 404.542 C 352.606 422.86 378.603 437.454 403.627 453.39 L 497.134 513.643 C 494.519 506.643 491.61 499.312 489.293 492.222 C 467.707 426.195 442.594 361.024 421.74 294.776 C 400.926 307.398 393.828 320.363 383.129 340.978 C 339.548 358.496 347.303 352.441 328.111 393.341 L 317.707 387.491 C 322.296 382.533 327.164 375.952 329.548 369.619 C 337.698 347.974 356.678 343.229 377.492 334.97 C 385.121 319.528 393.382 306.415 407.377 296.058 C 418.761 288.6 425.367 282.952 434.355 272.894 C 448.208 257.391 474.25 252.078 491.966 244.731 L 493.074 244.261 C 523.385 203.102 553.597 197.45 599.627 189.483 C 608.577 185.766 618.262 176.65 626.224 171.779 C 653.199 155.275 704.399 140.348 735.556 148.388 C 775.699 125.711 810.098 113.107 855.993 122.405 C 860.279 118.471 865.066 115.431 869.879 112.178 C 875.964 95.3825 891.36 96.6986 901.497 109.567 C 913.574 109.932 919.016 110.025 930.379 113.646 C 947.948 103.791 970.444 96.8633 990.41 94.3682 z" fill="rgb(252,253,252)" transform="translate(0,0)"></path>
<path d="M 1591.69 803.217 C 1592.47 806.901 1600.2 816.775 1602.61 819.871 C 1616.93 825.704 1623.54 830.132 1638.13 821.94 C 1656.61 843.081 1689.16 873.113 1709.98 893.148 C 1742.34 924.431 1774.31 956.112 1805.89 988.183 C 1779.85 996.639 1749.65 1002.71 1722.62 1008.69 C 1691.85 1015.51 1659.89 1023.34 1629.02 1029.18 C 1628.17 982.141 1630.18 933.293 1629.01 886.052 C 1628.71 873.896 1630.33 846.746 1628.47 836.687 C 1626.42 835.522 1627.58 835.913 1624.35 836.758 C 1620.09 841.105 1621.92 850.809 1621.9 857.057 C 1621.8 870.941 1621.77 884.825 1621.81 898.71 C 1622.01 942.884 1621.97 987.06 1621.67 1031.23 C 1551.63 1046.45 1477.23 1065.37 1407.07 1082.05 C 1418.22 1068.83 1434.04 1046.59 1444.86 1032.25 L 1518.78 933.558 C 1544.68 898.686 1571.03 863.231 1599.03 830.023 C 1601.47 827.123 1602.79 825.098 1602.48 821.09 L 1600.68 820.443 C 1597.57 821.906 1595.04 823.914 1592.84 826.568 C 1525.35 908.121 1465.08 996.784 1399.59 1079.83 C 1393.58 1057.57 1387.13 1013.11 1383.18 989.173 C 1376.44 949.434 1369.35 909.756 1361.92 870.143 C 1403.13 857.982 1444.52 846.415 1486.06 835.445 C 1518.84 826.753 1552.23 818.213 1584.58 807.991 C 1588.79 806.661 1589.4 806.317 1591.69 803.217 z" fill="rgb(25,28,56)" transform="translate(0,0)"></path>
<path d="M 1364.64 1291.42 C 1443.71 1287.3 1560.24 1307.83 1634.06 1338.24 C 1664.32 1350.7 1695.8 1375.29 1707.42 1406.7 C 1714.87 1426.84 1717.04 1451.06 1708.2 1471.21 C 1688.93 1472.84 1669.9 1475.46 1650.52 1476.84 C 1632.64 1478.11 1616.28 1478.03 1598.29 1477.99 C 1543.1 1478.08 1482.9 1471.2 1427.71 1462.08 C 1383.68 1454.8 1309.33 1440.43 1271.96 1414.82 C 1246.45 1397.34 1238.1 1345.16 1260.9 1321.94 C 1284.23 1298.19 1332.56 1293.66 1364.64 1291.42 z" fill="rgb(25,28,56)" transform="translate(0,0)"></path>
<path d="M 1366.99 1265.47 C 1404.59 1264.82 1462.13 1270.08 1499.64 1276.02 C 1571.36 1287.38 1670.17 1308.61 1715.52 1370.13 C 1735.68 1397.5 1740.78 1426.06 1736.24 1459.18 C 1731.35 1494.82 1707.22 1521.9 1678.34 1541.96 C 1614.55 1586.26 1533.33 1621.8 1454.21 1608.3 C 1398.52 1598.8 1336 1568.37 1302.05 1521.95 C 1287.17 1501.61 1283.78 1484.18 1287.78 1460.05 C 1293.69 1461.1 1299.57 1462.25 1305.44 1463.49 C 1301.71 1490.97 1310.69 1509.09 1330.54 1528.07 C 1371.2 1566.96 1435.41 1592.63 1491.67 1592.19 C 1562.08 1590.82 1640.78 1557.75 1691.72 1509.09 C 1736.72 1466.1 1728.31 1404.31 1686.41 1363.12 C 1636.33 1318.37 1554.42 1303.16 1489.42 1292.46 C 1425.36 1281.91 1340.41 1275.99 1279.07 1300.03 C 1228.55 1319.82 1229.12 1389.33 1267.48 1420.97 C 1284.53 1435.04 1310.03 1441.46 1331.04 1447.99 C 1415.87 1471.85 1505.29 1483.01 1593.26 1485.79 C 1630.01 1486.91 1667.61 1483.26 1704.1 1480.15 C 1692.36 1502.82 1667.34 1521.67 1646.3 1534.99 C 1552.71 1535.73 1463.36 1523.79 1370.94 1510.68 C 1354.15 1508.3 1336.01 1507.04 1319.51 1503.54 C 1308.7 1483.95 1310.97 1478.1 1314.49 1456.95 C 1295.25 1454.16 1266.07 1447.52 1251.28 1434.12 C 1234.29 1418.72 1222.06 1386.27 1221 1363.8 C 1220.09 1341.71 1228.04 1320.17 1243.1 1303.97 C 1270.53 1274.29 1328.83 1267.1 1366.99 1265.47 z" fill="rgb(25,28,56)" transform="translate(0,0)"></path>
<path d="M 990.692 801.605 C 997.22 807.247 1112.72 1019.53 1120.76 1037.05 C 1064.85 1045.67 1004.77 1050.67 948.234 1057.9 C 938.33 1058.54 923.52 1060.78 913.334 1062.02 C 888.647 1065.26 863.899 1068.03 839.105 1070.31 C 835.944 1065.55 834.487 1064.15 830.545 1060.14 L 940.183 882.074 C 954.572 858.817 979.164 823.793 990.692 801.605 z" fill="rgb(25,28,56)" transform="translate(0,0)"></path>
<path d="M 1509.45 606.855 C 1565.18 625.965 1621.07 644.578 1677.13 662.693 C 1692.38 667.532 1721.84 678.544 1735.77 681.684 C 1713.11 704.539 1671.46 743.017 1648.71 768.903 C 1647.55 770.222 1648.26 772.054 1648.99 773.505 C 1651.92 773.448 1654.13 771.833 1656.25 769.886 C 1685.09 743.426 1711.72 712.305 1741.19 686.714 C 1744.27 709.938 1750.86 735.254 1756.29 758.249 L 1777.49 849.753 C 1787.66 892.863 1797.47 936.058 1806.92 979.335 C 1772.06 942.268 1733.33 906.666 1697.25 870.607 C 1679.79 853.155 1660.65 835.912 1644.27 817.585 C 1652.47 806.428 1656.55 793.932 1650.4 780.554 C 1646.88 772.774 1640.25 766.838 1632.12 764.206 C 1621.81 760.859 1613.68 763.256 1604.51 767.734 C 1598.26 755.422 1588.22 739.653 1580.97 727.545 L 1534.82 650.314 C 1526.84 636.883 1516.51 620.418 1509.45 606.855 z" fill="rgb(25,28,56)" transform="translate(0,0)"></path>
<path d="M 572.394 202.225 C 575.268 201.755 574.204 201.631 576.921 202.494 C 580.597 214.876 564.16 268.991 569.083 280.428 C 590.457 330.087 621.656 376.37 640.585 427.661 C 621.648 442.63 596.674 457.966 576.212 471.211 L 506.759 517.126 L 506.174 516.926 C 503.358 513.674 431.761 303.501 428.564 291.121 C 439.597 275.656 455.674 264.204 473.766 259.054 C 481.281 256.915 490.13 254.086 496.837 250.162 C 502.01 247.136 505.684 239.477 510.147 235.392 C 528.325 216.102 546.746 207.395 572.394 202.225 z" fill="rgb(25,28,56)" transform="translate(0,0)"></path>
<path d="M 687.612 404.21 C 690.657 407.184 709.699 440.978 712.756 446.309 C 747.625 507.653 781.829 569.374 815.361 631.459 C 811.502 634.839 809.215 638.082 806.059 642.091 C 767.695 626.973 727.887 609.837 689.625 594.024 C 630.98 570.438 570.473 544.567 511.253 522.541 C 571.124 484.738 629.933 445.279 687.612 404.21 z" fill="rgb(25,28,56)" transform="translate(0,0)"></path>
<path d="M 838.171 1097.67 L 951.563 1131.37 C 974.194 1137.89 998.576 1143.81 1020.81 1150.85 C 1009.34 1157.4 996.646 1163.27 984.53 1170.25 C 923.889 1205.48 863.672 1241.44 803.893 1278.12 C 766.968 1301.14 727.83 1324.13 690.427 1347.01 C 697.077 1331.69 708.47 1310.93 716.185 1295.33 C 746.421 1234.2 777.915 1174.62 807.568 1113.13 C 822.315 1113.34 830.275 1110.2 838.171 1097.67 z" fill="rgb(25,28,56)" transform="translate(0,0)"></path>
<path d="M 980.957 802.177 C 981.017 802.462 982.091 803.068 981.366 804.134 C 975.007 813.485 954.199 846.392 949.702 853.537 L 824.9 1055.77 C 813.548 1053.12 808.657 1053.25 797.683 1055.83 C 792.685 1042.65 778.096 1017.76 770.742 1004.45 C 753.64 972.665 729.771 933.106 715.462 901.46 C 729.589 896.294 743.369 890.371 757.424 885.021 L 890.921 834.943 C 920.556 823.909 951.016 812.132 980.957 802.177 z" fill="rgb(25,28,56)" transform="translate(0,0)"></path>
<path d="M 1132.78 1045.13 C 1160.7 1048.79 1191.08 1055.76 1219.12 1060.43 C 1276.15 1069.92 1333.02 1081.19 1390.04 1090.62 C 1373.78 1102.81 1359.07 1116.94 1344.13 1130.7 C 1327.95 1145.54 1311.68 1160.28 1295.32 1174.93 C 1259.33 1206.5 1223.67 1238.45 1188.35 1270.76 C 1179.12 1241.71 1169.71 1199.25 1162.16 1169.38 C 1152.48 1131.03 1138.91 1083.7 1132.78 1045.13 z" fill="rgb(25,28,56)" transform="translate(0,0)"></path>
<path d="M 1397.65 1093.62 C 1409.57 1100.37 1440.51 1126.55 1453.68 1136.05 C 1506.37 1174.07 1557.21 1215.03 1609.72 1253.33 C 1578.37 1251 1547.03 1248.41 1515.72 1245.57 C 1470.43 1241.04 1437.41 1236.54 1391.25 1235.02 C 1354.95 1234.11 1318.59 1234.87 1283.69 1246.01 C 1270.57 1250.2 1257.12 1253.7 1244 1257.87 C 1227.57 1263.09 1210.16 1267.08 1194.23 1273.58 C 1222.28 1250.65 1246.31 1228.37 1273.16 1204.19 L 1330.19 1153.5 C 1353.61 1132.26 1372.8 1113.36 1397.65 1093.62 z" fill="rgb(25,28,56)" transform="translate(0,0)"></path>
<path d="M 508.051 528.621 C 564.907 550.888 621.522 573.768 677.885 597.256 C 717.048 613.18 763.456 630.588 801.315 648.395 C 800.429 651.59 799.68 655.023 798.916 658.271 C 786.672 660.484 774.363 662.321 762.007 663.78 C 686.699 674.934 598.007 688.742 523.058 696.01 C 522.538 694.816 522.005 693.627 521.461 692.444 C 516.061 680.732 510.928 676.647 498.996 672.252 C 501.525 624.346 504.544 576.466 508.051 528.621 z" fill="rgb(25,28,56)" transform="translate(0,0)"></path>
<path d="M 857.21 683.129 C 899.303 721.294 942.198 756.772 985.167 793.915 C 957.408 802.053 928.166 813.429 901.007 823.547 C 867.465 835.808 834.011 848.306 800.646 861.039 C 770.325 872.371 740.138 884.056 710.09 896.092 C 710.811 887.204 715.169 846.768 718.297 840.43 C 722.546 838.964 723.902 839.239 725.415 834.937 L 723.783 831.706 C 724.23 826.975 808.747 706.676 818.62 691.018 C 820.572 691.414 822.536 691.753 824.508 692.033 C 837.953 693.859 846.785 691.284 857.21 683.129 z" fill="rgb(25,28,56)" transform="translate(0,0)"></path>
<path d="M 1806.67 996.046 L 1809.12 996.247 C 1811.15 1000.11 1812.1 1073.25 1812.42 1083.59 L 1818.28 1298.94 C 1797.09 1265.16 1770.31 1228.46 1747.26 1195.47 C 1725.88 1165.35 1704.69 1135.1 1683.68 1104.71 C 1670.66 1085.85 1648.16 1052.41 1633.36 1035.71 C 1671.29 1028.91 1710.14 1017.56 1748.1 1010.06 C 1767.19 1006.28 1788 1001.37 1806.67 996.046 z" fill="rgb(25,28,56)" transform="translate(0,0)"></path>
<path d="M 1353.7 874.774 C 1360.04 879.536 1387.91 1058.57 1393.14 1083.6 C 1333.3 1074.72 1270.63 1062.25 1210.75 1051.67 C 1189.52 1048.19 1156.8 1042.55 1136.23 1037.76 C 1150.1 1027.65 1163.64 1016.2 1177.63 1005.99 L 1290.14 922.706 C 1311.38 906.836 1332.96 891.271 1353.7 874.774 z" fill="rgb(25,28,56)" transform="translate(0,0)"></path>
<path d="M 1502.41 610.51 C 1505.3 613.044 1517.87 635.521 1520.72 640.397 C 1538.75 671.499 1557.08 702.421 1575.72 733.16 C 1581.3 742.295 1593.72 763.606 1599.96 770.714 C 1592.16 781.463 1590.82 785.51 1590.87 798.061 C 1541.62 813.646 1493.67 825.453 1444.06 839.385 C 1417.65 847.38 1390.35 854.155 1363.68 861.962 C 1379.51 831.177 1398.57 798.085 1415.51 767.783 L 1459.57 687.867 C 1472.5 664.875 1492.56 633.625 1502.41 610.51 z" fill="rgb(25,28,56)" transform="translate(0,0)"></path>
<path d="M 1152.67 116.399 C 1164.41 114.929 1171.49 119.438 1182.06 124.419 C 1231.45 119.825 1244.8 122.789 1289.01 144.159 C 1289.41 156.646 1293.99 162.488 1305.38 166.923 C 1312.61 214.701 1319.42 262.539 1325.83 310.432 C 1309 301.659 1287.84 287.985 1271.22 277.923 C 1256.5 268.22 1239.56 259.103 1224.67 249.354 C 1170.84 214.109 1113.61 181.663 1059.7 146.924 C 1091.07 130.602 1117.19 120.468 1152.67 116.399 z" fill="rgb(25,28,56)" transform="translate(0,0)"></path>
<path d="M 1492.94 611.241 L 1493.02 611.29 C 1493.47 613.686 1369.17 835.831 1357.09 859.752 C 1345.47 846.892 1325.39 819.205 1313.71 804.487 C 1294.7 780.583 1275.47 756.867 1255.99 733.343 C 1262.07 721.315 1262.63 718.114 1260.63 704.883 C 1328.42 679.834 1395.52 648.73 1463.45 623.465 C 1473.17 619.846 1483.53 615.569 1492.94 611.241 z" fill="rgb(25,28,56)" transform="translate(0,0)"></path>
<path d="M 1094.29 561.07 C 1096.85 562.085 1196.63 678.517 1206.15 690.365 C 1197.69 700.748 1194.93 707.475 1195.77 720.757 C 1158.89 734.315 1121.68 746.968 1084.17 758.704 C 1064.6 766.654 1018.57 782.23 998.452 788.112 C 1006.25 760.358 1016.17 732.735 1025.15 705.248 L 1070.92 564.781 C 1081.23 565.019 1084.58 565.289 1094.29 561.07 z" fill="rgb(25,28,56)" transform="translate(0,0)"></path>
<path d="M 706.977 842.302 L 708.453 843.042 C 708.325 851.258 704.74 873.946 703.515 883.136 C 681.015 880.306 660.041 883.829 638.377 890.602 C 595.992 903.854 557.629 934.933 531.884 970.677 C 522.662 983.482 514.884 999.849 507.696 1013.85 C 446.771 1008.37 387.401 1005.11 325.857 998.711 C 320.057 997.932 312.299 997.937 306.296 997.78 C 319.912 990.93 333.567 982.595 347.189 975.009 C 399.475 945.892 450.93 914.7 503.727 886.564 C 510.54 884 518.502 882.224 525.517 880.774 C 586.076 868.256 646.307 854.26 706.977 842.302 z" fill="rgb(25,28,56)" transform="translate(0,0)"></path>
<path d="M 782.103 1096.18 C 789.557 1101.43 787.566 1105.6 799.962 1111.37 C 787.464 1140.25 771.046 1171.38 756.584 1199.51 C 741.038 1229.39 725.812 1259.44 710.909 1289.65 C 700.833 1309.57 691.173 1327.83 682.265 1348.28 C 675.179 1330.45 666.203 1313.39 657.502 1296.29 C 642.573 1265.16 625.892 1234.16 610.09 1203.45 C 603.054 1189.78 595.263 1176.58 588.524 1162.69 C 653.371 1141.47 717.904 1119.29 782.103 1096.18 z" fill="rgb(25,28,56)" transform="translate(0,0)"></path>
<path d="M 795.664 667.455 L 797.973 667.156 C 800.184 668.151 807.642 681.586 812.342 685.871 C 802.092 704.169 787.15 724.548 774.971 742.015 C 755.171 770.247 735.654 798.676 716.421 827.297 C 704.872 821.217 690.182 811.836 678.573 805.092 C 654.437 791.166 630.105 777.582 605.584 764.344 C 577.855 749.436 550.505 732.515 522.441 718.571 C 523.833 712.992 523.99 709.268 524.418 703.611 C 542.743 701.928 561.932 698.375 580.325 696.31 C 651.494 688.319 724.758 674.66 795.664 667.455 z" fill="rgb(25,28,56)" transform="translate(0,0)"></path>
<path d="M 1049.95 551.266 C 1055.19 557.09 1057.46 558.768 1063.95 562.606 C 1040.71 637.152 1015 713.771 990.812 788.214 C 970.676 772.734 945.773 750.462 925.937 733.743 C 904.149 715.677 882.654 697.261 861.46 678.502 C 868.675 666.162 869.341 660.242 864.573 647.07 C 871.702 638.611 1025.59 564.522 1049.95 551.266 z" fill="rgb(25,28,56)" transform="translate(0,0)"></path>
<path d="M 1618.54 1039.26 C 1620.11 1038.99 1619.29 1038.89 1620.93 1039.93 C 1622.3 1062.51 1620.7 1100.5 1620.23 1123.63 C 1619.27 1165.74 1618.78 1207.86 1618.76 1249.98 C 1583.47 1228.15 1535.35 1187.81 1500.48 1161.8 C 1480.92 1147.52 1461.55 1132.99 1442.37 1118.21 C 1430.62 1109.25 1416.3 1098.89 1405.55 1089.15 C 1433.73 1083.9 1461.33 1076.16 1489.26 1069.84 C 1532.3 1060.09 1575.35 1048.09 1618.54 1039.26 z" fill="rgb(25,28,56)" transform="translate(0,0)"></path>
<path d="M 1057.75 154.946 C 1063.85 157.85 1079.79 168.007 1086.29 171.937 C 1107.98 185.05 1129.54 198.356 1150.99 211.855 L 1317.91 314.797 C 1305.09 318.407 1290.93 321.507 1277.8 324.992 L 1119.77 365.737 C 1108.5 336.623 1095.96 288.51 1086.47 257.245 C 1078.29 230.296 1062.82 181.362 1057.75 154.946 z" fill="rgb(25,28,56)" transform="translate(0,0)"></path>
<path d="M 1031.92 1156.4 C 1036.78 1158.13 1071.99 1188.87 1078.38 1193.91 C 1111.99 1220.43 1145.41 1251.52 1179.72 1276.77 C 1129.04 1292.08 1077.76 1305.29 1025.99 1316.37 L 898.223 1338.58 C 943.448 1278.34 988.015 1217.61 1031.92 1156.4 z" fill="rgb(25,28,56)" transform="translate(0,0)"></path>
<path d="M 1556.58 421.577 C 1562.11 426.328 1584.02 461.96 1590.06 470.525 L 1733.46 673.979 L 1697.76 661.877 C 1661.92 651.066 1625.34 638.398 1589.81 626.447 C 1563.37 617.552 1534.72 608.967 1508.95 598.888 C 1525.47 539.955 1540.03 480.405 1556.58 421.577 z" fill="rgb(25,28,56)" transform="translate(0,0)"></path>
<path d="M 708.613 908.686 C 715.429 915.193 785.604 1045.54 791.719 1059.55 C 781.521 1069.95 780.513 1074.95 780.904 1088.85 C 767.205 1092.91 749.712 1099.53 736.009 1104.3 C 708.837 1113.74 681.72 1123.34 654.659 1133.09 L 589.538 1155.05 C 628.207 1074.44 672.745 989.942 708.613 908.686 z" fill="rgb(25,28,56)" transform="translate(0,0)"></path>
<path d="M 1628.28 1039.77 C 1629.56 1040.87 1640.83 1057.02 1642.65 1059.54 L 1688.61 1124.32 C 1728.12 1181.2 1773.08 1242.28 1810.48 1300.2 C 1807.98 1302.24 1805.59 1304.96 1803.37 1307.35 L 1802.34 1309.43 C 1799.12 1309.44 1639.88 1260.13 1625.2 1255.1 C 1626.59 1235.07 1626 1211.1 1626.43 1190.63 C 1627.79 1140.35 1628.41 1090.06 1628.28 1039.77 z" fill="rgb(25,28,56)" transform="translate(0,0)"></path>
<path d="M 459.791 718.154 C 469.166 732.472 475.61 736.002 491.833 739.345 C 493.274 782.486 498.276 836.057 497.866 877.286 C 439.117 870.21 377.488 859.327 318.833 850.267 C 308.428 848.614 257.508 842.722 253.58 836.945 C 257.587 833.129 285.001 818.687 292.224 814.444 L 459.791 718.154 z" fill="rgb(25,28,56)" transform="translate(0,0)"></path>
<path d="M 1340.87 324.998 C 1357.29 330.381 1380.74 342.153 1397.69 349.147 C 1448.52 370.118 1499.1 393.579 1550.45 413.236 C 1541.06 458.27 1525.09 510.128 1513.44 555.433 C 1509.72 567.937 1506.26 581.982 1502.84 594.685 C 1495.68 579.414 1478.61 554.016 1469.19 538.42 L 1385.58 399.472 L 1357.56 353.572 C 1352.28 344.928 1345.08 333.936 1340.87 324.998 z" fill="rgb(25,28,56)" transform="translate(0,0)"></path>
<path d="M 1295.69 525.467 C 1300.78 525.299 1307.36 525.61 1312.58 525.724 C 1305.54 542.571 1296.65 560.729 1289.03 577.49 L 1241.4 683.393 L 1238.99 682.956 C 1227.43 680.805 1222.87 680.949 1212.28 685.594 L 1168.77 635.501 C 1148.95 612.402 1117.58 579.013 1100.52 556.017 C 1109.14 546.878 1110.73 541.817 1111.08 529.808 C 1172.63 528.807 1234.17 527.36 1295.69 525.467 z" fill="rgb(25,28,56)" transform="translate(0,0)"></path>
<path d="M 737.474 199.223 C 745.881 203.328 757.105 211.882 764.897 217.56 C 799.214 242.568 820.762 264.202 846.07 298.39 L 702.551 384.125 C 693.686 389.151 685.107 396.376 676.889 402.566 C 667.206 409.928 657.261 416.938 647.072 423.581 C 643.117 412.508 638.519 401.69 634.03 390.821 C 641.993 373.525 654.336 352.949 663.84 336.261 L 706.483 260.906 C 717.803 240.88 730.052 220.984 737.474 199.223 z" fill="rgb(25,28,56)" transform="translate(0,0)"></path>
<path d="M 993.165 142.424 C 1010.46 141.369 1031.1 143.233 1047.73 148.34 C 998.641 189.918 950.044 237.236 918.463 294.221 C 916.734 298.461 915.497 303.436 914.373 307.787 C 904.721 345.137 896.377 382.826 885.954 419.972 C 883.336 430.336 880.822 440.293 877.791 450.556 C 871.452 402.976 860.072 351.823 858.91 303.631 C 858.626 291.854 865.53 265.975 868.23 253.472 L 887.165 166.711 C 896.168 164.096 907.455 159.841 916.673 156.867 C 943.335 148.264 965.176 144.071 993.165 142.424 z" fill="rgb(25,28,56)" transform="translate(0,0)"></path>
<path d="M 1000.03 800.137 C 1061.82 813.106 1123.26 823.412 1185.29 837.096 L 1139.97 984.397 C 1135.44 999.604 1130.82 1014.79 1126.11 1029.94 L 1049.38 890.122 C 1033.72 861.899 1013.69 828.886 1000.03 800.137 z" fill="rgb(25,28,56)" transform="translate(0,0)"></path>
<path d="M 322.397 642.681 C 339.349 648.444 359.071 657.217 375.831 664.176 C 403.024 675.432 430.312 686.456 457.693 697.248 C 457.794 703.166 457.789 706.165 458.875 712.109 C 442.673 718.814 422.928 731.116 407.34 740.185 C 383.269 754.368 358.998 768.211 334.535 781.709 C 317.325 791.403 300.215 801.274 283.207 811.32 C 275.228 815.973 258.045 826.538 249.983 829.094 C 247.536 827.499 246.933 826.821 244.841 824.846 C 245.807 817.444 256.973 782.963 259.91 772.556 C 271.121 733.382 281.499 693.975 291.037 654.361 C 305.962 656.502 312.682 653.483 322.397 642.681 z" fill="rgb(25,28,56)" transform="translate(0,0)"></path>
<path d="M 1324.07 320.125 L 1325.39 320.812 C 1326.34 326.078 1323.14 367.304 1322.77 375.114 C 1320.58 420.84 1316.48 467.8 1315.64 513.5 C 1302.22 501.281 1286.16 489.817 1271.47 479.018 L 1209.27 433.798 C 1184.59 414.994 1147.51 390.768 1125.5 371.138 C 1163.39 362.213 1200.23 352.772 1237.84 342.677 C 1266.5 334.986 1295.53 328.417 1324.07 320.125 z" fill="rgb(25,28,56)" transform="translate(0,0)"></path>
<path d="M 1319.88 526.578 C 1339.89 533.089 1367.47 546.198 1387.09 554.885 L 1496.68 603.152 C 1458.68 616.692 1414.37 634.997 1376.74 650.378 C 1355.44 658.466 1333.11 668.342 1311.74 676.756 C 1296.86 682.612 1271.78 691.827 1258.6 699.203 C 1255.37 693.258 1252.28 690.665 1246.83 686.865 C 1264.22 653.309 1278.14 616.345 1294.31 582.052 C 1302.98 563.675 1311.56 545.102 1319.88 526.578 z" fill="rgb(25,28,56)" transform="translate(0,0)"></path>
<path d="M 699.416 394.459 C 710.016 394.922 854.82 455.543 872.543 463.569 C 870.784 478.05 865.771 500.565 862.944 515.403 C 857.091 545.607 851.628 575.886 846.558 606.232 L 842.066 627.241 C 833.645 625.339 830.341 625.598 822.012 627.781 C 793.04 573.682 761.514 520.102 732.32 466.014 C 720.539 444.186 706.647 422.241 695.69 400.056 C 696.214 396.52 696.159 397.561 699.416 394.459 z" fill="rgb(25,28,56)" transform="translate(0,0)"></path>
<path d="M 1049.48 155.729 C 1051.51 157.817 1060.33 193.714 1061.91 199.189 L 1111.28 365.074 C 1084.66 352.182 1050.22 340.332 1022.25 329.953 L 927.06 293.166 C 949.57 249.845 1013.2 187.501 1049.48 155.729 z" fill="rgb(25,28,56)" transform="translate(0,0)"></path>
<path d="M 251.309 847.661 C 270.47 849.206 295.452 854.221 314.871 856.903 C 373.025 864.934 435.023 877.766 493.098 883.632 C 477.813 894.293 438.674 914.385 420.221 925.068 C 403.519 935.711 381.169 947.512 363.668 957.442 C 342.558 969.421 317.91 983.854 296.207 993.791 C 278.112 950.946 259.773 899.424 244.582 855.192 C 246.735 852.984 249.216 850.018 251.309 847.661 z" fill="rgb(25,28,56)" transform="translate(0,0)"></path>
<path d="M 880.148 465.591 C 933.406 485.216 990.635 505.466 1042.81 527.05 C 1042.42 535.01 1042.97 538.203 1046.06 545.491 C 1018.79 559.723 990.013 573.266 962.36 587.391 L 897.348 620.354 C 886.353 625.958 871.075 634.275 860.015 638.662 C 856.771 635.133 853.088 632.365 849.362 629.341 C 856.821 578.418 869.978 516.202 880.148 465.591 z" fill="rgb(25,28,56)" transform="translate(0,0)"></path>
<path d="M 1019.77 1159.08 L 1020.46 1159.79 C 992.509 1196.55 965.995 1234 938.946 1271.42 C 923.006 1293.47 904.658 1316.09 890.299 1338.84 C 878.294 1341.07 862.625 1342.54 850.274 1344.19 C 799.249 1351.03 750.261 1354.33 698.879 1351.8 L 697.573 1351.52 C 698.461 1349.85 898.214 1229.15 921.143 1215.65 C 953.804 1196.42 986.681 1177.56 1019.77 1159.08 z" fill="rgb(25,28,56)" transform="translate(0,0)"></path>
<path d="M 1748.57 693.618 C 1754.97 698.553 1772.19 717.461 1780.01 724.758 C 1814.74 757.161 1857.59 794.137 1889.15 829.023 C 1871.47 878.942 1882.99 897.278 1850.81 943.525 C 1840.5 958.202 1828.78 971.831 1815.81 984.214 C 1796.61 888.498 1768.06 789.294 1748.57 693.618 z" fill="rgb(25,28,56)" transform="translate(0,0)"></path>
<path d="M 1332.96 325.783 C 1358.07 370.565 1387.44 416.028 1414.03 460.205 C 1440.84 504.74 1467.54 551.506 1495.68 595.011 L 1487.66 591.772 C 1434.63 566.865 1376.02 542.256 1322.05 519.074 C 1323.99 474.529 1326.33 430.002 1329.07 385.499 C 1330.21 366.635 1331.03 344.368 1332.96 325.783 z" fill="rgb(25,28,56)" transform="translate(0,0)"></path>
<path d="M 518.876 724.869 C 531.543 731.29 544.143 738.103 556.45 745.181 C 607.776 774.701 661.253 801.648 711.437 833.049 C 693.892 837.46 675.214 841.082 657.438 844.798 C 606.748 856.06 555.987 866.997 505.156 877.606 C 504.917 832.955 499.033 784.432 498.903 738.194 C 509.757 735.365 512.497 733.74 518.876 724.869 z" fill="rgb(25,28,56)" transform="translate(0,0)"></path>
<path d="M 1296.6 1527.4 C 1302.82 1533.19 1311.06 1543.96 1318.76 1551.21 C 1340.92 1572.05 1363.93 1584.75 1390.78 1597.98 C 1390.98 1607.68 1392.64 1619.35 1393.38 1629.24 C 1397.07 1678.17 1408.22 1725 1416.85 1773.04 C 1424.74 1816.91 1430.57 1862.87 1435.99 1907.21 C 1431.64 1901.45 1407.8 1845.22 1403.12 1834.84 C 1391.47 1809.26 1379.51 1783.82 1367.24 1758.54 C 1360.68 1745.13 1350.98 1726.71 1345.36 1713.41 C 1340.33 1701.48 1334.07 1677.61 1330.3 1664.07 C 1319.36 1624.73 1299.91 1567.29 1296.6 1527.4 z" fill="rgb(25,28,56)" transform="translate(0,0)"></path>
<path d="M 1117.96 375.312 C 1121.33 377.174 1129.64 383.96 1133.05 386.597 C 1142.81 394.199 1152.69 401.637 1162.69 408.909 C 1210.85 443.235 1266.11 482.405 1312.38 518.825 C 1302.04 518.43 1292.56 518.67 1282.25 518.915 L 1110.27 523.319 C 1104.46 510.056 1102.77 507.873 1090.5 500.312 C 1095.67 482.889 1099.97 459.792 1103.77 441.586 L 1117.96 375.312 z" fill="rgb(25,28,56)" transform="translate(0,0)"></path>
<path d="M 1192.88 838.557 L 1349.45 869.281 C 1329.08 885.829 1306.13 901.98 1285.01 917.853 C 1264.76 933.064 1243.92 949.427 1223.35 963.987 C 1198.08 982.312 1154.44 1012.22 1132.97 1033.28 C 1147.52 982.119 1163.93 931.634 1179.44 880.77 C 1183.73 866.696 1187.89 852.378 1192.88 838.557 z" fill="rgb(25,28,56)" transform="translate(0,0)"></path>
<path d="M 498.821 529.983 C 502.487 534.923 492.39 653.312 491.894 671.059 C 476.973 673.202 468.8 677.748 461.117 690.97 C 428.118 677.818 395.193 664.478 362.345 650.952 C 349.707 645.848 336.914 641.137 323.984 636.825 C 324.184 629.032 324.212 625.654 320.983 618.599 C 379.441 589.825 440.213 557.329 498.821 529.983 z" fill="rgb(25,28,56)" transform="translate(0,0)"></path>
<path d="M 1478.49 230.739 C 1489.15 236.436 1539.59 381.968 1549.03 404.963 C 1517.18 392.833 1482.92 377.287 1451.04 364.014 C 1425.43 353.121 1399.9 342.035 1374.46 330.758 C 1361.77 325.234 1348.65 320.214 1336.16 314.527 C 1352.52 304.029 1371.49 293.545 1388.37 283.653 L 1478.49 230.739 z" fill="rgb(25,28,56)" transform="translate(0,0)"></path>
<path d="M 1562.57 416.883 C 1580.22 422.082 1603.44 431.385 1621.02 437.839 C 1654.28 449.839 1687.45 462.066 1720.54 474.517 C 1723.92 482.94 1722.68 481.888 1731.41 486.814 C 1733.17 547.3 1735.52 607.768 1738.44 668.21 C 1735.97 665.661 1728.48 654.084 1726.12 650.63 C 1717.98 638.703 1709.71 626.86 1701.33 615.102 L 1630.99 515.512 C 1610.02 486.256 1580.66 446.609 1562.57 416.883 z" fill="rgb(25,28,56)" transform="translate(0,0)"></path>
<path d="M 556.454 990.73 C 561.409 998.788 566.973 1096.29 571.718 1114.32 C 574.752 1125.84 573.728 1150.14 577.545 1163.23 C 563.672 1194.86 550.085 1226.62 536.783 1258.49 C 527.05 1253.03 521.034 1248.08 512.677 1240.79 C 487.585 1217.89 467.193 1185.8 478.907 1151.04 C 489.325 1120.13 505.685 1092.26 519.989 1063.05 C 531.72 1039.09 541.771 1013.06 556.454 990.73 z" fill="rgb(25,28,56)" transform="translate(0,0)"></path>
<path d="M 924.417 300.098 C 948.728 307.921 977.285 320.877 1001.67 329.836 C 1037.24 342.903 1072.05 356.261 1107 370.964 C 1076.19 381.956 1046.88 392.195 1016.29 404 C 976.193 419.946 925.671 438.567 884.866 452.77 C 899.06 401.859 910.233 350.706 924.417 300.098 z" fill="rgb(25,28,56)" transform="translate(0,0)"></path>
<path d="M 1109.89 377.209 L 1110.1 377.448 C 1110.5 380.108 1086.86 487.544 1084.6 498.046 C 1063.56 497.239 1053.64 500.986 1044.35 520.604 C 1010.86 506.114 967.852 489.863 933.258 477.555 C 917.573 471.74 901.93 465.813 886.331 459.773 C 891.727 458.523 904.001 453.608 909.706 451.49 L 953.571 435.178 C 1006.24 415.56 1056.83 396.038 1109.89 377.209 z" fill="rgb(25,28,56)" transform="translate(0,0)"></path>
<path d="M 1221.77 1641.52 C 1246.18 1648.09 1312.25 1694.14 1334.3 1711.76 C 1337.87 1714.62 1356.99 1754.32 1360.25 1761.06 C 1374.15 1789.92 1387.67 1818.95 1400.83 1848.15 C 1412.02 1873.61 1422.89 1899.49 1434.83 1924.63 C 1436.92 1929.04 1437.12 1929.88 1440.73 1931.03 C 1441.86 1930.68 1442.9 1930.66 1443.61 1929.62 C 1449.1 1921.55 1430.28 1812.91 1427.18 1795.01 L 1427.58 1795.81 L 1428.23 1797.15 C 1434.89 1810.54 1443.39 1835.25 1448.99 1849.91 C 1461.77 1882.8 1478.86 1923.97 1495.07 1955.01 C 1469.18 1954.81 1442.13 1955.44 1416.39 1954.42 C 1408.03 1934.16 1398.57 1909.17 1389.33 1889.53 C 1358.72 1824.47 1320.27 1759.57 1276.07 1702.85 C 1259.94 1682.15 1239.34 1661.4 1221.77 1641.52 z" fill="rgb(25,28,56)" transform="translate(0,0)"></path>
<path d="M 696.668 911.441 L 698.555 911.718 C 698.517 917.58 596.355 1124.78 583.298 1151.76 C 582.898 1146.81 582.256 1141.47 581.745 1136.5 C 574.331 1085.67 569.147 1033.76 563.619 982.631 C 565.663 979.69 567.844 976.846 570.156 974.111 C 602.073 936.608 647.871 915.137 696.668 911.441 z" fill="rgb(25,28,56)" transform="translate(0,0)"></path>
<path d="M 1116.53 1045.52 C 1116.55 1045.59 1116.58 1045.65 1116.57 1045.71 C 1115.8 1049.75 1039.78 1134.79 1029.89 1146.71 C 1011.89 1140.34 990.406 1135.21 971.78 1129.87 C 942.806 1121.43 913.896 1112.76 885.053 1103.89 C 870.368 1099.38 855.603 1095.15 840.764 1091.18 C 841.672 1084.93 841.662 1083.37 841.389 1077.13 C 882.404 1073.7 922.948 1068.37 963.825 1063.57 C 1014.77 1057.91 1065.67 1051.9 1116.53 1045.52 z" fill="rgb(25,28,56)" transform="translate(0,0)"></path>
<path d="M 274.796 642.084 C 278.565 646.488 280.281 648.109 284.594 651.938 C 279.97 671.007 242.51 816.4 235.932 823.509 C 232.029 825.263 231.602 825.056 227.175 824.856 C 222.03 819.339 201.598 788.154 196.194 780.31 C 179.47 756.877 153.931 721.838 139.349 697.43 C 151.596 690.314 172.009 682.576 185.533 677.086 C 215.17 665.122 244.926 653.454 274.796 642.084 z" fill="rgb(25,28,56)" transform="translate(0,0)"></path>
<path d="M 378.251 446.335 C 418.24 470.744 456.618 497.113 497.048 521.451 C 461.38 540.638 426.807 557.579 390.5 575.413 L 340.563 600.172 C 333.739 603.563 320.368 610.728 313.818 612.593 C 307.184 608.525 318.584 588.668 321.265 582.374 L 341.497 534.901 C 353.854 505.741 365.191 474.854 378.251 446.335 z" fill="rgb(25,28,56)" transform="translate(0,0)"></path>
<path d="M 1330.93 155.223 C 1347.27 162.607 1367.57 164.845 1384.7 173.458 C 1402.37 182.35 1412.05 193.166 1427.01 205.566 C 1430.68 208.61 1443.69 211.229 1448.28 213.571 C 1457 217.046 1463.86 220.886 1472.06 225.637 C 1456.48 236.719 1426.7 252.856 1409.46 262.857 C 1383.63 277.77 1357.95 292.927 1332.41 308.328 C 1327.48 262.009 1318.65 214.15 1312.91 167.518 C 1313.67 167.401 1314.43 167.268 1315.18 167.119 C 1323.38 165.477 1326.45 161.774 1330.93 155.223 z" fill="rgb(25,28,56)" transform="translate(0,0)"></path>
<path d="M 1123.83 1048.78 C 1125.54 1050.57 1174.1 1245.73 1180.25 1269.07 C 1164.23 1256.22 1148.09 1242.42 1132.29 1229.22 C 1103.32 1205.04 1066.07 1172.27 1036.23 1150.59 C 1064.39 1115.36 1096.31 1083.42 1123.83 1048.78 z" fill="rgb(25,28,56)" transform="translate(0,0)"></path>
<path d="M 232.352 855.173 C 233.598 855.523 237.648 856.695 238.08 858.068 C 252.899 905.102 274.729 951.982 288.922 998.863 C 260.442 1012.79 247.247 1015.47 214.971 1008.91 C 186.663 1001.27 169.579 983.057 154.433 959.105 C 180.036 924.603 207.12 889.565 232.352 855.173 z" fill="rgb(25,28,56)" transform="translate(0,0)"></path>
<path d="M 1815.69 618.505 C 1840.54 631.69 1850.6 655.611 1845.54 682.955 C 1869.73 706.407 1884.26 733.211 1883.65 767.478 C 1883.34 785.485 1881.56 796.498 1884.96 814.267 C 1874.86 803.294 1863.72 793.227 1852.76 783.128 C 1817.97 749.481 1780.64 715.834 1747.14 681.44 C 1759.64 671.463 1806.89 630.274 1815.69 618.505 z" fill="rgb(25,28,56)" transform="translate(0,0)"></path>
<path d="M 1156.16 1486.88 C 1168.26 1487.15 1184.96 1488.87 1197.26 1489.8 L 1281.54 1496.29 C 1284.61 1502.93 1285.83 1508.09 1286.72 1515.33 C 1294 1574.43 1313.19 1631.23 1329.17 1688.32 C 1326.6 1686.23 1318.96 1676.62 1316.23 1673.36 C 1306.51 1661.56 1296.69 1649.84 1286.78 1638.2 L 1200.45 1538.71 C 1191.16 1528.09 1163.03 1497.44 1156.16 1486.88 z" fill="rgb(25,28,56)" transform="translate(0,0)"></path>
<path d="M 726.576 199.174 C 728.403 198.919 727.423 198.847 729.481 199.677 C 729.528 209.444 640.466 361.812 629.522 383.83 C 624.895 373.525 618.839 362.475 613.583 352.374 C 602.346 329.401 588.946 307.4 577.985 283.898 C 618.651 242.361 670.118 213.016 726.576 199.174 z" fill="rgb(25,28,56)" transform="translate(0,0)"></path>
<path d="M 849.189 305.061 C 849.547 305.513 849.905 305.965 850.263 306.416 C 855.904 345.221 862.85 420.656 873.142 454.979 C 863.104 451.599 848.084 444.81 837.818 440.641 L 773.722 414.98 C 751.947 406.485 730.251 397.789 708.636 388.893 C 738.344 372.761 766.641 352.909 795.986 336.044 C 813.799 325.808 831.53 315.566 849.189 305.061 z" fill="rgb(25,28,56)" transform="translate(0,0)"></path>
<path d="M 1325.52 1511.9 C 1403.38 1522.87 1482.13 1534.05 1560.41 1540.84 C 1582.65 1542.76 1608.59 1543.25 1631.2 1544.25 C 1622.45 1548.71 1613.61 1552.97 1604.67 1557.03 C 1567.46 1572.35 1531.99 1584.75 1490.84 1584.38 C 1441.74 1583.94 1393.16 1566.8 1353.58 1537.8 C 1343.77 1530.61 1334.06 1520.62 1325.52 1511.9 z" fill="rgb(25,28,56)" transform="translate(0,0)"></path>
<path d="M 1147.11 1488.89 C 1149.9 1490.09 1305.18 1671.95 1323.14 1692.59 C 1309.76 1683.27 1293.64 1673.53 1279.73 1664.69 C 1266.71 1656.61 1253.4 1648.99 1239.84 1641.85 C 1231.48 1637.53 1210.63 1628.66 1204.34 1622.94 C 1173.72 1595.09 1150.97 1556.05 1108.27 1545.34 C 1098.89 1542.99 1086.83 1537.17 1078.58 1532.24 C 1093.12 1525.33 1132.45 1498.63 1147.11 1488.89 z" fill="rgb(25,28,56)" transform="translate(0,0)"></path>
<path d="M 1196.4 729.001 C 1197.06 728.877 1199.17 729.174 1199.22 729.239 C 1204.87 735.764 1207.7 739.477 1215.2 743.738 C 1207.69 771.647 1197.12 802.367 1188.1 830.11 C 1142.41 820.647 1096.64 811.614 1050.78 803.013 C 1034.46 799.735 1018.03 797.031 1001.52 794.908 L 1196.4 729.001 z" fill="rgb(25,28,56)" transform="translate(0,0)"></path>
<path d="M 296.069 419.878 C 300.068 424.517 296.066 590.219 294.986 608.284 C 294.729 608.342 294.472 608.4 294.214 608.458 L 292.935 608.77 C 286.322 610.343 285.415 610.813 279.506 613.837 C 267.43 601.131 254.03 591.589 240.095 581.008 C 231.413 574.358 212.463 558.049 203.616 554.553 C 217.095 521.861 220.973 516.886 249.915 495.764 L 250.108 494.441 C 254.986 462.288 270.017 439.067 296.069 419.878 z" fill="rgb(25,28,56)" transform="translate(0,0)"></path>
<path d="M 582.647 1168.66 C 586.5 1173.03 600.992 1201.64 604.565 1208.43 C 628.832 1254.49 652.177 1301.02 674.586 1348 C 663.447 1345.22 656.601 1343.19 645.758 1339.43 C 622.769 1330.94 576.874 1312.76 562.347 1292.6 C 555.223 1282.71 558.52 1274.21 544.518 1262.85 L 543.367 1261.93 C 555.818 1231.37 571.537 1198.44 582.647 1168.66 z" fill="rgb(25,28,56)" transform="translate(0,0)"></path>
<path d="M 1245.9 1290.25 L 1246.41 1291.15 C 1222.58 1308.36 1212.34 1337.29 1213.37 1365.97 C 1202.06 1386.1 1190.29 1406.18 1178.59 1426.08 C 1170.14 1440.45 1160.94 1460.87 1150.72 1473.68 C 1149.36 1468.07 1148.35 1460.11 1147.45 1454.24 C 1144.52 1440.15 1141.98 1419.69 1139.95 1405.31 C 1136.39 1378.67 1132.46 1352.09 1128.16 1325.57 C 1168 1315.12 1206.23 1301.07 1245.9 1290.25 z" fill="rgb(25,28,56)" transform="translate(0,0)"></path>
<path d="M 1001.87 1354.34 C 1008.05 1352.85 1020.74 1361.93 1025.92 1365.25 C 1071.37 1394.44 1105.22 1435.46 1139.27 1476.63 C 1125.6 1471.62 1111.89 1466.72 1098.13 1461.95 L 1033.54 1440.56 C 978.51 1422.42 970.009 1422.27 946.152 1365.37 C 964.677 1361.46 983.25 1357.78 1001.87 1354.34 z" fill="rgb(25,28,56)" transform="translate(0,0)"></path>
<path d="M 1250.45 739.093 C 1256.38 740.733 1340.8 850.714 1349.56 862.19 C 1334.61 859.367 1319.7 856.379 1304.81 853.225 C 1270.59 846.31 1228.2 839.735 1195.13 831.313 L 1222.2 745.942 C 1235.03 746.121 1239.44 745.413 1250.45 739.093 z" fill="rgb(25,28,56)" transform="translate(0,0)"></path>
<path d="M 1739.71 485.191 C 1742.72 485.637 1754.35 496.518 1757.84 499.591 C 1800.99 537.607 1805.7 562.955 1809.21 616.377 C 1801.28 624.634 1788.19 635.885 1779.52 643.732 C 1768.53 653.833 1757.27 663.644 1745.75 673.153 C 1744.82 665.602 1744.71 652.123 1744.4 644.161 L 1742.18 586.148 L 1739.81 524.051 C 1739.46 514.381 1738.18 493.768 1739.71 485.191 z" fill="rgb(25,28,56)" transform="translate(0,0)"></path>
<path d="M 1496.98 247.975 C 1522.11 256.153 1547.26 270.009 1564.33 290.579 C 1569.22 296.472 1574.02 306.605 1579.43 310.626 C 1601.75 327.21 1611.92 326.932 1628.18 350.158 C 1618.78 358.419 1608.27 366.228 1598.33 373.901 C 1584.32 384.489 1570.47 395.287 1556.78 406.292 C 1537.15 353.059 1518.31 300.578 1496.98 247.975 z" fill="rgb(25,28,56)" transform="translate(0,0)"></path>
<path d="M 201.126 560.628 C 206.8 562.723 268.133 611.964 277.483 619.291 C 273.122 626.87 275.153 627.704 272.716 635.313 C 248.931 644.043 225.275 653.121 201.755 662.543 C 182.911 669.932 164.175 677.595 145.554 685.53 C 164.085 660.617 158.23 631.413 170.287 603.407 C 178.056 585.362 190.346 577.089 200.365 561.807 L 201.126 560.628 z" fill="rgb(25,28,56)" transform="translate(0,0)"></path>
<path d="M 710.445 154.421 C 717.892 154.049 722.767 154.265 730.253 154.714 L 730.53 190.459 C 673.638 202.237 631.605 227.724 587.673 264.068 L 575.723 274.596 C 578.616 249.357 582.174 225.604 585.52 200.493 C 608.856 196.162 613.182 190.297 631.957 177.666 C 655.212 162.023 682.799 156.102 710.445 154.421 z" fill="rgb(25,28,56)" transform="translate(0,0)"></path>
<path d="M 815.949 127.387 C 826.616 126.443 841.285 127.736 852.197 128.466 C 822.678 164.332 814.349 196.303 805.385 240.58 C 800.286 236.073 794.585 231.467 789.337 227.065 C 771.856 212.899 756.852 202.761 737.971 190.7 L 738.018 155.664 C 760.533 140.953 789.134 130.254 815.949 127.387 z" fill="rgb(25,28,56)" transform="translate(0,0)"></path>
<path d="M 1634.08 354.988 C 1636.99 358.44 1637.68 366.733 1641.72 370.614 C 1649.31 377.91 1659.25 382.854 1667.74 389.251 C 1693.5 408.588 1712.06 435.981 1720.46 467.074 C 1704.28 460.791 1688.04 454.669 1671.73 448.708 C 1635.96 435.385 1599.99 422.57 1563.85 410.268 C 1586.77 392.459 1611.16 371.88 1634.08 354.988 z" fill="rgb(25,28,56)" transform="translate(0,0)"></path>
<path d="M 309.777 1004.08 C 327.112 1005.03 348.45 1008.32 366.339 1009.97 C 412.083 1014.36 457.908 1017.86 503.788 1020.47 C 496.452 1036.12 489.028 1051.73 481.513 1067.3 C 477.497 1075.32 472.917 1083.62 468.698 1091.59 C 461.215 1087.69 452.87 1082.8 445.681 1078.39 C 401.652 1051.34 354.657 1029.44 309.777 1004.08 z" fill="rgb(25,28,56)" transform="translate(0,0)"></path>
<path d="M 321.487 408.628 C 338.488 419.618 354.286 431.194 371.816 442.277 L 318.016 571.593 C 311.637 585.672 307.501 595.103 302.842 609.593 C 304.029 568.275 303.996 527.541 304.496 486.246 C 304.747 465.468 304.466 441.13 306.351 420.862 C 314.912 418.311 317.316 416.343 321.487 408.628 z" fill="rgb(25,28,56)" transform="translate(0,0)"></path>
<path d="M 1118.5 1328.08 C 1119.76 1328.15 1118.95 1328.02 1120.79 1328.94 C 1129.57 1372.02 1134.96 1422.44 1141.59 1466.37 C 1124.81 1448.99 1111.17 1430.4 1093.73 1412.64 C 1067.55 1385.71 1048.73 1370.2 1016.5 1351.13 C 1050.83 1345.01 1084.87 1337.32 1118.5 1328.08 z" fill="rgb(25,28,56)" transform="translate(0,0)"></path>
<path d="M 870.652 119.888 C 879.163 132.415 877.897 126.273 885.197 132.59 C 884.898 142.766 877.633 175.057 875.122 187.023 L 852.441 293.818 C 848.587 288.669 844.704 283.542 840.791 278.438 C 831.667 267.23 821.828 256.623 811.335 246.685 C 814.206 236.134 816.025 223.13 819.058 211.991 C 829.037 175.348 843.706 146.556 870.652 119.888 z" fill="rgb(25,28,56)" transform="translate(0,0)"></path>
<path d="M 1214.39 1378.71 C 1216.17 1381.47 1222.03 1401.69 1224.71 1407.75 C 1237.75 1437.27 1253.13 1447.8 1282.49 1458.28 C 1277.23 1466.02 1278.73 1478.8 1279.14 1488.06 C 1262.31 1486.75 1244.61 1485.81 1227.75 1484.88 C 1204.53 1483.48 1180.49 1480.6 1157.52 1479.72 C 1160.49 1474.8 1163.3 1469.79 1166.02 1464.73 C 1181.6 1435.75 1198.1 1407.29 1214.39 1378.71 z" fill="rgb(25,28,56)" transform="translate(0,0)"></path>
<path d="M 1924.44 1109.73 C 1927.44 1113.37 1928.42 1128.33 1928.85 1133.29 C 1931.18 1160.3 1930.29 1184.7 1918.05 1209.41 C 1913.85 1217.9 1906.85 1229.72 1904.4 1238.61 C 1900.81 1251.62 1901.79 1268.36 1901.95 1282 C 1882.58 1289.14 1861.98 1298.44 1842.29 1306.03 L 1840.62 1305.71 C 1840.25 1305.33 1836.95 1302.17 1837.31 1301.36 C 1861.27 1246.85 1888.33 1192.89 1912.16 1137.99 C 1916.26 1128.56 1920.14 1119.04 1924.44 1109.73 z" fill="rgb(25,28,56)" transform="translate(0,0)"></path>
<path d="M 998.527 101.402 C 1011 100.561 1023.53 101.971 1035.51 105.565 C 1056.12 111.9 1060.8 113.19 1082.68 108.591 C 1104.58 103.988 1126.91 103.268 1148.6 109.576 C 1139.1 111.263 1130.59 111.989 1120.79 114.307 C 1097.32 119.861 1074.25 130.07 1053.16 141.681 C 1043.95 139.179 1037.79 137.399 1028.24 136.246 C 980.548 129.222 932.794 142.903 888.39 157.954 C 889.987 148.909 891.465 139.842 892.824 130.758 C 899.278 125.848 900.152 124.222 902.708 116.505 C 915.061 117.483 920.312 118.329 931.951 122.434 C 955.071 109.302 971.946 103.452 998.527 101.402 z" fill="rgb(25,28,56)" transform="translate(0,0)"></path>
<path d="M 1033.03 1448.12 C 1068.63 1459.75 1104.01 1472.08 1139.13 1485.09 C 1131.57 1491.29 1122.79 1496.63 1114.5 1501.85 C 1102.01 1509.9 1085.06 1520.99 1071.89 1527.39 C 1048.59 1507.8 1041.56 1476.32 1033.03 1448.12 z" fill="rgb(25,28,56)" transform="translate(0,0)"></path>
<path d="M 298.769 1006.31 C 312.857 1012.5 336.992 1026.33 351.29 1033.97 C 384.929 1051.9 418.372 1070.2 451.611 1088.86 C 394.196 1080.34 308.84 1077.48 298.769 1006.31 z" fill="rgb(25,28,56)" transform="translate(0,0)"></path>
<path d="M 1729.97 466.009 C 1735.31 465.51 1740.92 464.538 1742.8 470.761 C 1741.9 474.793 1741.49 474.979 1738.67 478.205 C 1736.12 479.291 1735.71 479.235 1732.92 479.658 C 1726.63 476.582 1728.06 471.797 1729.97 466.009 z" fill="rgb(25,28,56)" transform="translate(0,0)"></path>
<path d="M 1639.84 1789.44 C 1653.62 1786.54 1667.19 1795.2 1670.37 1808.92 C 1673.55 1822.65 1665.17 1836.4 1651.52 1839.85 C 1642.43 1842.16 1632.81 1839.37 1626.37 1832.56 C 1619.92 1825.75 1617.66 1816 1620.46 1807.05 C 1623.25 1798.1 1630.66 1791.37 1639.84 1789.44 z" fill="rgb(252,253,252)" transform="translate(0,0)"></path>
<path d="M 295.15 1226.65 C 308.444 1223.64 321.675 1231.92 324.794 1245.18 C 327.913 1258.45 319.754 1271.75 306.514 1274.99 C 293.111 1278.26 279.611 1269.98 276.454 1256.55 C 273.296 1243.12 281.693 1229.69 295.15 1226.65 z" fill="rgb(252,253,252)" transform="translate(0,0)"></path>
<path d="M 517.973 1276.2 C 545.981 1274.36 555.577 1301.17 530.516 1312.43 C 521.323 1313.82 512.547 1312.1 507.366 1303.6 C 504.765 1299.32 504.123 1294.13 505.601 1289.35 C 507.644 1282.57 512.112 1279.38 517.973 1276.2 z" fill="rgb(252,253,252)" transform="translate(0,0)"></path>
<path d="M 113.345 915.648 C 123.395 912.473 134.13 917.963 137.438 927.97 C 140.745 937.976 135.396 948.783 125.434 952.222 C 118.872 954.487 111.599 953.046 106.397 948.45 C 101.194 943.854 98.8674 936.814 100.306 930.023 C 101.745 923.232 106.726 917.74 113.345 915.648 z" fill="rgb(252,253,252)" transform="translate(0,0)"></path>
<path d="M 1926.35 1053.97 C 1951.35 1051.46 1957.31 1084.69 1930.29 1092.05 C 1906.74 1088.79 1900.8 1065 1926.35 1053.97 z" fill="rgb(252,253,252)" transform="translate(0,0)"></path>
<path d="M 1706.69 183.414 C 1714.44 181.716 1722.12 186.521 1723.99 194.232 C 1725.86 201.943 1721.23 209.735 1713.56 211.773 C 1708.45 213.133 1703 211.618 1699.32 207.815 C 1695.64 204.012 1694.31 198.517 1695.84 193.452 C 1697.37 188.387 1701.52 184.547 1706.69 183.414 z" fill="rgb(252,253,252)" transform="translate(0,0)"></path>
<path d="M 954.959 1579.58 C 962.792 1578.02 970.405 1583.12 971.944 1590.95 C 973.483 1598.79 968.362 1606.39 960.52 1607.9 C 952.713 1609.41 945.157 1604.32 943.625 1596.52 C 942.093 1588.71 947.162 1581.14 954.959 1579.58 z" fill="rgb(252,253,252)" transform="translate(0,0)"></path>
<metadata><recraft-signature>{"signed_by": "recraft", "signature_b64": "Sr+2rj5Q0wVTBi6K7qkiRRjQdR2Zb2n8/4W5fmOO8aS6re/Psr5p1SHIatAw0NfMd3BeH93zG1l8eKqpICF/Cg==", "signing_algo": "Ed25519", "generation_timestamp": 1781377638, "identifier": "fe5c4ffa-2823-4aee-85b8-8e10d1af45b5"}</recraft-signature></metadata></svg>